# AST/ASF file generated using VICON BodyLanguage
# -----------------------------------------------
:version 1.10
:name VICON
:units
  mass 1.0
  length 0.45
  angle deg
:documentation
   .ast/.asf automatically generated from VICON data using
   VICON BodyBuilder and BodyLanguage model FoxedUp or BRILLIANT.MOD
:root
   order TX TY TZ RX RY RZ
   axis XYZ
   position 0 0 0  
   orientation 0 0 0 
:bonedata
  begin
     id 1 
     name lhipjoint
     direction 0.677091 -0.635792 0.370561 
     length 2.74323 
     axis 0 0 0  XYZ
  end
  begin
     id 2 
     name lfemur
     direction 0.34202 -0.939693 0  
     length 7.44995  
     axis 0 0 20  XYZ
    dof rx ry rz
    limits (-160.0 20.0)
           (-70.0 70.0)
           (-60.0 70.0)
  end
  begin
     id 3 
     name ltibia
     direction 0.34202 -0.939693 0   
     length 7.34467   
     axis 0 0 20   XYZ
    dof rx
    limits (-10.0 170.0)
  end
  begin
     id 4 
     name lfoot
     direction 0.101953 -0.280114 0.954537   
     length 1.72105   
     axis -90 7.62852e-016 20   XYZ
    dof rx rz
    limits (-45.0 90.0)
           (-70.0 20.0)
  end
  begin
     id 5 
     name ltoes
     direction 1.53537e-011 -4.21915e-011 1   
     length 0.865872   
     axis -90 7.62852e-016 20   XYZ
    dof rx
    limits (-90.0 20.0)
  end
  begin
     id 6 
     name rhipjoint
     direction -0.695735 -0.620586 0.361699   
     length 2.81045  
     axis 0 0 0  XYZ 
  end
  begin
     id 7 
     name rfemur
     direction -0.34202 -0.939693 0   
     length 7.29387   
     axis 0 0 -20   XYZ
    dof rx ry rz
    limits (-160.0 20.0)
           (-70.0 70.0)
           (-70.0 60.0)
  end
  begin
     id 8 
     name rtibia
     direction -0.34202 -0.939693 0   
     length 7.44935   
     axis 0 0 -20   XYZ
    dof rx
    limits (-10.0 170.0)
 end
 begin
     id 9 
     name rfoot
     direction -0.104163 -0.286184 0.952496   
     length 1.77731  
     axis -90 -7.62852e-016 -20   XYZ
    dof rx rz
    limits (-45.0 90.0)
           (-20.0 70.0)
  end
  begin
     id 10 
     name rtoes
     direction -1.5355e-011 -4.21888e-011 1   
     length 0.892424   
     axis -90 -7.62852e-016 -20   XYZ
    dof rx
    limits (-90.0 20.0)
  end
  begin
     id 11 
     name lowerback
     direction 0.0100202 0.997226 -0.0737589   
     length 2.16892   
     axis 0 0 0   XYZ
    dof rx ry rz
    limits (-20.0 45.0)
           (-30.0 30.0)
           (-30.0 30.0)
  end
  begin
     id 12 
     name upperback
     direction 0.00432398 0.999988 -0.00215019   
     length 2.17326   
     axis 0 0 0   XYZ
    dof rx ry rz
    limits (-20.0 45.0)
           (-30.0 30.0)
           (-30.0 30.0)
  end
  begin
     id 13 
     name thorax
     direction -0.00195047 0.999485 0.0320434   
     length 2.18139   
     axis 0 0 0   XYZ
    dof rx ry rz
    limits (-20.0 45.0)
           (-30.0 30.0)
           (-30.0 30.0)
  end
  begin
     id 14 
     name lowerneck
     direction 0.00782762 0.986241 0.165128   
     length 1.88415   
     axis 0 0 0   XYZ
    dof rx ry rz
    limits (-20.0 45.0)
           (-30.0 30.0)
           (-30.0 30.0)
  end
  begin
     id 15 
     name upperneck
     direction 0.00988667 0.981098 -0.193258   
     length 1.9242   
     axis 0 0 0   XYZ
    dof rx ry rz
    limits (-20.0 45.0)
           (-30.0 30.0)
           (-30.0 30.0)
  end
  begin
     id 16
     name head
     direction 0.00252199 0.996513 -0.0833958  
     length 1.93887  
     axis 0 0 0   XYZ
    dof rx ry rz
    limits (-20.0 45.0)
           (-30.0 30.0)
           (-30.0 30.0)
  end
  begin
     id 17 
     name lclavicle
     direction 0.929492 0.368193 -0.0218667  
     length 3.5955  
     axis 0 0 0   XYZ
    dof ry rz
    limits (-20.0 10.0)
           (0.0 20.0)
  end
  begin
     id 18 
     name lhumerus
     direction 1 -4.48972e-011 1.41911e-027   
     length 5.2795   
     axis 180 -30 -90   XYZ
    dof rx ry rz
    limits (-60.0 90.0)
           (-90.0 90.0)
           (-90.0 90.0)
  end
  begin
     id 19
     name lradius
     direction 1 -4.48963e-011 7.05772e-027   
     length 3.53504   
     axis 180 -30 -90   XYZ
    dof rx
    limits (-10.0 170.0)
  end
  begin
     id 20
     name lwrist
     direction 1 -4.48957e-011 9.54866e-027   
     length 1.76752   
     axis -7.69462e-015 90 90   XYZ
    dof ry
    limits (-180.0 0.0)
 end
  begin
     id 21 
     name lhand
     direction 1 -4.48979e-011 1.90973e-026   
     length 0.667948   
     axis -1.21857e-014 90 90   XYZ
    dof rx rz
    limits (-90.0 90.0)
           (-45.0 45.0)
  end
  begin
     id 22 
     name lfingers
     direction 1 -4.48987e-011 3.81946e-026   
     length 0.538517   
     axis -2.43714e-014 90 90   XYZ
    dof rx
    limits (0.0 90.0)
  end
  begin
     id 23
     name lthumb
     direction 0.707107 -6.34962e-011 0.707107   
     length 0.773206   
     axis -90 45 2.85299e-015   XYZ
    dof rx rz
    limits (-45.0 45.0)
           (-45.0 45.0)
  end
  begin
     id 24 
     name rclavicle
     direction -0.898763 0.414256 -0.143584   
     length 3.5176  
     axis 0 0 0   XYZ 
    dof ry rz
    limits (-10.0 20.0)
           (-20.0 0.0)
  end
  begin
     id 25 
     name rhumerus
     direction -1 -4.48971e-011 1.129e-027  
     length 5.25035   
     axis 180 30 90   XYZ
    dof rx ry rz
    limits (-90.0 60.0)
           (-90.0 90.0)
           (-90.0 90.0)
  end
  begin
     id 26 
     name rradius
     direction -1 -4.48955e-011 6.34664e-027   
     length 3.58884   
     axis 180 30 90   XYZ
    dof rx
    limits (-10.0 170.0)
  end
  begin
     id 27 
     name rwrist
     direction -1 -4.48966e-011 9.54866e-027   
     length 1.79442   
     axis -7.69462e-015 -90 -90   XYZ
    dof ry
    limits (-180.0 0.0)
  end
  begin
     id 28
     name rhand
     direction -1 -4.48973e-011 1.90973e-026   
     length 0.779235   
     axis -1.21857e-014 -90 -90   XYZ
    dof rx rz
    limits (-90.0 90.0)
           (-45.0 45.0)
  end
  begin
     id 29
     name rfingers
     direction -1 -4.48984e-011 3.81946e-026   
     length 0.62824   
     axis -2.43714e-014 -90 -90   XYZ
    dof rx
    limits (0.0 90.0)
  end
  begin
     id 30
     name rthumb
     direction -0.707107 -6.34968e-011 0.707107   
     length 0.90203   
     axis -90 -45 -2.85299e-015   XYZ
    dof rx rz
    limits (-45.0 45.0)
           (-45.0 45.0)
  end
:hierarchy
  begin
    root lhipjoint rhipjoint lowerback
    lhipjoint lfemur
    lfemur ltibia
    ltibia lfoot
    lfoot ltoes
    rhipjoint rfemur
    rfemur rtibia
    rtibia rfoot
    rfoot rtoes
    lowerback upperback
    upperback thorax
    thorax lowerneck lclavicle rclavicle
    lowerneck upperneck
    upperneck head
    lclavicle lhumerus
    lhumerus lradius
    lradius lwrist
    lwrist lhand lthumb
    lhand lfingers
    rclavicle rhumerus
    rhumerus rradius
    rradius rwrist
    rwrist rhand rthumb
    rhand rfingers
  end

#!OML:ASF I:\Random Stuff\random\construction\7_22_03\Session 2\subj1.ASF
:FULLY-SPECIFIED
:DEGREES
216
root 4.14684 17.8084 1.48798 133.137 87.9373 125.82
lowerback 2.71732 0.637816 3.85732
upperback -0.42044 1.06588 2.404
thorax -1.93351 0.518631 0.260847
lowerneck -23.0509 0.856172 2.26382
upperneck 45.6774 0.879531 3.91807
head 24.0132 2.00635 2.37855
rclavicle -2.3059e-014 -4.6118e-014
rhumerus -23.7642 20.6619 -87.6459
rradius 96.6627
rwrist -79.9558
rhand -35.699 14.1979
rfingers 7.12502
rthumb -8.81932 -15.5978
lclavicle -2.3059e-014 -4.6118e-014
lhumerus -14.5431 -0.467933 87.3008
lradius 102.333
lwrist 80.8433
lhand -17.6279 63.8812
lfingers 7.12502
lthumb 8.62942 626.315
rfemur -10.7065 4.61421 21.6372
rtibia 15.5236
rfoot -9.07209 -26.5123
rtoes -4.02213
lfemur -15.7207 -12.7743 -12.7809
ltibia 15.4422
lfoot -7.20694 12.1507
ltoes -24.5363
217
root 4.17355 17.8003 1.47829 142.243 87.7754 134.992
lowerback 2.48493 0.5928 3.86643
upperback -0.557876 1.00685 2.58897
thorax -1.94926 0.490858 0.450397
lowerneck -23.0147 0.960601 2.36434
upperneck 45.7268 1.04923 3.85813
head 24.0421 2.08363 2.3752
rclavicle -9.14409e-015 -4.92986e-014
rhumerus -24.16 19.7964 -87.8143
rradius 96.6961
rwrist -81.7063
rhand -36.9579 14.0203
rfingers 7.12502
rthumb -10.0341 -15.7205
lclavicle -9.14409e-015 -4.92986e-014
lhumerus -14.7693 -0.0820858 87.1539
lradius 103.791
lwrist 80.772
lhand -17.6284 64.1787
lfingers 7.12502
lthumb 8.62894 626.018
rfemur -10.4682 4.88161 21.7309
rtibia 15.5362
rfoot -9.36525 -27.0612
rtoes -3.097
lfemur -15.5441 -13.1729 -12.6975
ltibia 15.1657
lfoot -6.76201 12.6667
ltoes -25.5155
218
root 4.19816 17.7891 1.46124 151.888 87.5683 144.795
lowerback 2.31987 0.542626 4.00217
upperback -0.653881 0.948319 2.77997
thorax -1.95812 0.462907 0.574772
lowerneck -22.9696 1.05428 2.50119
upperneck 45.7095 1.18223 3.77308
head 24.0038 2.14954 2.33277
rclavicle -2.98177e-015 -4.45278e-014
rhumerus -24.5634 18.8949 -88.057
rradius 96.6239
rwrist -83.3073
rhand -36.6676 15.448
rfingers 7.12502
rthumb -9.75396 -14.3062
lclavicle -2.98177e-015 -4.45278e-014
lhumerus -15.0322 0.305812 87.0529
lradius 105.25
lwrist 80.5238
lhand -17.3053 64.4726
lfingers 7.12502
lthumb 8.94078 625.737
rfemur -10.1242 4.96511 21.9055
rtibia 15.5247
rfoot -9.57728 -27.5244
rtoes -2.62853
lfemur -15.292 -13.9053 -12.5616
ltibia 14.9402
lfoot -6.57284 13.1928
ltoes -26.4469
219
root 4.22368 17.7763 1.43074 160.006 87.171 153.205
lowerback 2.25689 0.422978 4.23263
upperback -0.708464 0.803279 2.93222
thorax -1.98148 0.390415 0.608851
lowerneck -23.0106 1.11321 2.49953
upperneck 45.7698 1.28397 3.79202
head 24.0778 2.19255 2.38095
rclavicle -1.19271e-015 -2.06736e-014
rhumerus -24.8385 17.5005 -88.1981
rradius 96.5448
rwrist -84.098
rhand -37.1479 15.6554
rfingers 7.12502
rthumb -10.2173 -14.0764
lclavicle -1.19271e-015 -2.06736e-014
lhumerus -15.3134 0.711419 86.9405
lradius 106.658
lwrist 80.2385
lhand -16.2964 63.9031
lfingers 7.12502
lthumb 9.91425 626.35
rfemur -9.61157 4.81644 22.0138
rtibia 15.4971
rfoot -9.87605 -27.8966
rtoes -2.14126
lfemur -14.925 -15.1899 -12.4962
ltibia 14.7827
lfoot -6.53642 14.0933
ltoes -27.9689
220
root 4.25291 17.7683 1.40701 163.371 87.0795 156.78
lowerback 2.07166 0.41943 4.25603
upperback -0.740528 0.796775 3.0955
thorax -1.91286 0.390848 0.765556
lowerneck -23.079 1.21962 2.53656
upperneck 45.8571 1.42037 3.86675
head 24.1913 2.26204 2.4675
rclavicle -3.57812e-015 -2.06736e-014
rhumerus -24.9894 16.2269 -88.3078
rradius 96.3429
rwrist -84.3213
rhand -37.2828 15.7516
rfingers 7.12502
rthumb -10.3474 -13.9738
lclavicle -3.57812e-015 -2.06736e-014
lhumerus -15.558 1.10472 86.839
lradius 107.961
lwrist 80.0187
lhand -15.0282 62.9129
lfingers 7.12502
lthumb 11.1376 627.403
rfemur -9.20862 4.98992 22.0991
rtibia 15.4805
rfoot -10.1114 -28.216
rtoes -1.88764
lfemur -14.5262 -16.4322 -12.4215
ltibia 14.6684
lfoot -6.71581 15.3013
ltoes -28.9185
221
root 4.28108 17.7639 1.38074 164.982 87.0645 158.643
lowerback 1.99656 0.461908 4.19286
upperback -0.771502 0.856072 3.26005
thorax -1.90516 0.424187 0.968597
lowerneck -22.8254 1.44578 3.10985
upperneck 45.5984 1.72316 3.36505
head 23.8366 2.40865 2.10956
rclavicle -2.78299e-015 -4.77083e-014
rhumerus -25.0531 14.9827 -88.2507
rradius 96.132
rwrist -84.2723
rhand -37.5942 15.9933
rfingers 7.12502
rthumb -10.6478 -13.7169
lclavicle -2.78299e-015 -4.77083e-014
lhumerus -15.8493 1.41843 86.7752
lradius 109.195
lwrist 79.9824
lhand -14.3208 62.4694
lfingers 7.12502
lthumb 11.8198 627.884
rfemur -8.78593 5.05215 22.1614
rtibia 15.5009
rfoot -9.97644 -28.4614
rtoes -3.17697
lfemur -14.0467 -17.7493 -12.4204
ltibia 14.5517
lfoot -6.99711 16.5778
ltoes -28.7889
222
root 4.30768 17.7623 1.35212 165.169 87.0294 159.059
lowerback 1.94969 0.490735 3.99296
upperback -0.825578 0.897311 3.45053
thorax -1.94007 0.449845 1.2751
lowerneck -23.065 1.45628 2.87158
upperneck 45.8393 1.80396 3.54283
head 24.1665 2.42287 2.31671
rclavicle -5.76476e-015 -3.33958e-014
rhumerus -25.094 13.7916 -88.0758
rradius 95.9241
rwrist -84.4546
rhand -37.9872 16.7368
rfingers 7.12502
rthumb -11.027 -12.9536
lclavicle -5.76476e-015 -3.33958e-014
lhumerus -16.2499 1.7929 86.7206
lradius 110.342
lwrist 79.884
lhand -13.976 62.4953
lfingers 7.12502
lthumb 12.1522 627.878
rfemur -8.43841 5.12839 22.1298
rtibia 15.579
rfoot -9.84698 -28.6893
rtoes -4.21063
lfemur -13.5745 -19.0762 -12.5056
ltibia 14.384
lfoot -7.28094 17.828
ltoes -28.3194
223
root 4.33363 17.7588 1.32316 163.081 86.9914 157.135
lowerback 1.84347 0.529336 3.70458
upperback -0.893302 0.942367 3.57044
thorax -1.95613 0.477348 1.55896
lowerneck -22.9234 1.60071 3.06138
upperneck 45.7525 2.00245 3.42719
head 24.0214 2.51589 2.25141
rclavicle 4.07509e-015 -5.56597e-014
rhumerus -25.0966 12.5209 -87.922
rradius 95.6979
rwrist -85.144
rhand -38.3853 17.8176
rfingers 7.12502
rthumb -11.4108 -11.8519
lclavicle 4.07509e-015 -5.56597e-014
lhumerus -16.7162 2.1535 86.5723
lradius 111.376
lwrist 79.6807
lhand -13.6209 62.4495
lfingers 7.12502
lthumb 12.4947 627.944
rfemur -8.23185 5.67361 21.8953
rtibia 15.742
rfoot -10.34 -29.0796
rtoes -2.46325
lfemur -13.1399 -20.183 -12.7309
ltibia 14.1542
lfoot -7.46637 18.9227
ltoes -28.2049
224
root 4.35895 17.7558 1.29358 159.27 86.9512 153.432
lowerback 1.6954 0.602105 3.41927
upperback -0.968754 1.02685 3.59669
thorax -1.95557 0.52299 1.74393
lowerneck -22.8773 1.71473 3.12697
upperneck 45.7294 2.13217 3.49186
head 23.9776 2.586 2.30699
rclavicle -6.4605e-015 4.77083e-015
rhumerus -25.0888 11.0179 -87.7851
rradius 95.4969
rwrist -85.9394
rhand -38.3326 18.59
rfingers 7.12502
rthumb -11.3601 -11.0823
lclavicle -6.4605e-015 4.77083e-015
lhumerus -17.1964 2.48106 86.3149
lradius 112.348
lwrist 79.6674
lhand -13.4109 62.4302
lfingers 7.12502
lthumb 12.6971 627.976
rfemur -8.11425 6.35629 21.5546
rtibia 15.961
rfoot -10.9205 -29.5533
rtoes -0.348347
lfemur -12.7458 -20.6903 -13.1119
ltibia 13.8856
lfoot -7.43144 19.4978
ltoes -28.8694
225
root 4.38316 17.7557 1.26267 156.187 86.8779 150.421
lowerback 1.52851 0.64227 3.17718
upperback -1.05121 1.06926 3.62211
thorax -1.95137 0.547404 1.90579
lowerneck -22.8853 1.87338 3.32221
upperneck 45.7833 2.36574 3.383
head 24.0387 2.6947 2.27643
rclavicle -9.14409e-015 9.54166e-015
rhumerus -25.0726 9.56752 -87.6146
rradius 95.3295
rwrist -86.1097
rhand -37.9372 18.7503
rfingers 7.12502
rthumb -10.9787 -10.9426
lclavicle -9.14409e-015 9.54166e-015
lhumerus -17.7027 2.9478 85.9345
lradius 113.219
lwrist 79.8368
lhand -13.4963 62.6278
lfingers 7.12502
lthumb 12.6147 627.773
rfemur -8.03881 6.69197 21.2693
rtibia 16.2001
rfoot -11.1149 -29.8928
rtoes 0.171129
lfemur -12.4154 -20.6859 -13.5098
ltibia 13.6152
lfoot -7.22595 19.5227
ltoes -29.8064
226
root 4.40618 17.7564 1.23015 153.813 86.8008 148.119
lowerback 1.38547 0.646644 2.98467
upperback -1.12742 1.06707 3.64778
thorax -1.95306 0.549105 2.0415
lowerneck -22.7435 2.09071 3.72319
upperneck 45.7003 2.74015 2.94455
head 23.9174 2.84479 2.03299
rclavicle 1.55052e-014 2.8625e-014
rhumerus -25.0035 8.2829 -87.3813
rradius 95.1288
rwrist -85.5479
rhand -37.6771 19.0189
rfingers 7.12502
rthumb -10.7278 -10.6872
lclavicle 1.55052e-014 2.8625e-014
lhumerus -18.2034 3.63323 85.4758
lradius 113.887
lwrist 79.7878
lhand -13.6779 62.8939
lfingers 7.12502
lthumb 12.4397 627.496
rfemur -7.97969 6.68269 21.0194
rtibia 16.4355
rfoot -11.1391 -30.0108
rtoes -0.212278
lfemur -12.0981 -20.6821 -13.8656
ltibia 13.353
lfoot -7.05344 19.498
ltoes -30.3525
227
root 4.42749 17.7572 1.19629 151.483 86.7692 145.859
lowerback 1.28318 0.683124 2.86155
upperback -1.19637 1.1105 3.64429
thorax -1.96918 0.572209 2.10652
lowerneck -22.6306 2.23856 3.92091
upperneck 45.6557 3.01918 2.69322
head 23.8406 2.94943 1.91719
rclavicle 2.98177e-015 -2.38542e-014
rhumerus -24.964 6.92047 -87.0578
rradius 94.8587
rwrist -84.7529
rhand -37.3838 19.5011
rfingers 7.12502
rthumb -10.4449 -10.2194
lclavicle 2.98177e-015 -2.38542e-014
lhumerus -18.6607 4.43168 84.984
lradius 114.381
lwrist 79.4565
lhand -13.8727 63.2274
lfingers 7.12502
lthumb 12.2518 627.151
rfemur -7.94029 6.65016 20.7849
rtibia 16.6768
rfoot -11.226 -30.053
rtoes -0.589181
lfemur -11.7673 -20.6934 -14.1912
ltibia 13.0772
lfoot -6.92619 19.523
ltoes -30.5228
228
root 4.44791 17.7563 1.16064 149.472 86.7575 143.939
lowerback 1.20768 0.741602 2.78853
upperback -1.25413 1.18501 3.62674
thorax -1.98834 0.610001 2.12784
lowerneck -22.575 2.36722 4.06956
upperneck 45.695 3.24409 2.56775
head 23.8667 3.04537 1.87997
rclavicle -2.19657e-014 -2.54444e-014
rhumerus -24.9779 5.4403 -86.6428
rradius 94.5753
rwrist -83.9739
rhand -37.1129 19.449
rfingers 7.12502
rthumb -10.1836 -10.2845
lclavicle -2.19657e-014 -2.54444e-014
lhumerus -19.0342 5.07497 84.2362
lradius 114.884
lwrist 79.3088
lhand -14.3172 63.7312
lfingers 7.12502
lthumb 11.8232 626.623
rfemur -7.86948 6.74209 20.5714
rtibia 16.9022
rfoot -11.3526 -30.1471
rtoes -0.767987
lfemur -11.4236 -20.4918 -14.5162
ltibia 12.8097
lfoot -6.85679 19.3315
ltoes -30.2695
229
root 4.46856 17.7533 1.12277 147.104 86.6652 141.704
lowerback 1.16629 0.800479 2.70542
upperback -1.30121 1.25901 3.56796
thorax -2.01498 0.646739 2.11192
lowerneck -22.4846 2.49435 4.23269
upperneck 45.7293 3.4516 2.46938
head 23.8749 3.14299 1.84932
rclavicle -3.97569e-016 -9.54166e-015
rhumerus -24.9561 3.89262 -86.0873
rradius 94.2325
rwrist -83.3933
rhand -37.0599 19.0959
rfingers 7.12502
rthumb -10.1324 -10.6401
lclavicle -3.97569e-016 -9.54166e-015
lhumerus -19.26 5.51967 83.2701
lradius 115.272
lwrist 79.3672
lhand -14.9092 64.3111
lfingers 7.12502
lthumb 11.2523 626.011
rfemur -7.7072 6.78545 20.2877
rtibia 17.0568
rfoot -11.4377 -30.2405
rtoes -1.10121
lfemur -11.0787 -20.007 -14.9545
ltibia 12.6101
lfoot -6.86922 18.7536
ltoes -29.798
